{
	"asset":{
		"generator":"Khronos glTF Blender I/O v3.6.27",
		"version":"2.0"
	},
	"scene":0,
	"scenes":[
		{
			"name":"Scene",
			"nodes":[
				0
			]
		}
	],
	"nodes":[
		{
			"mesh":0,
			"name":"Cube"
		}
	],
	"materials":[
		{
			"doubleSided":true,
			"name":"Material.001",
			"pbrMetallicRoughness":{
				"baseColorFactor":[
					0.8000000715255737,
					0.5045350790023804,
					0,
					1
				],
				"metallicFactor":0,
				"roughnessFactor":0.5
			}
		},
		{
			"doubleSided":true,
			"name":"Material.002",
			"pbrMetallicRoughness":{
				"baseColorFactor":[
					0,
					0,
					0,
					1
				],
				"metallicFactor":0,
				"roughnessFactor":0.5
			}
		}
	],
	"meshes":[
		{
			"name":"Cube",
			"primitives":[
				{
					"attributes":{
						"POSITION":0,
						"NORMAL":1,
						"TEXCOORD_0":2
					},
					"indices":3,
					"material":0
				},
				{
					"attributes":{
						"POSITION":4,
						"NORMAL":5,
						"TEXCOORD_0":6
					},
					"indices":7,
					"material":1
				}
			]
		}
	],
	"accessors":[
		{
			"bufferView":0,
			"componentType":5126,
			"count":1415,
			"max":[
				1.097581148147583,
				5.490200042724609,
				4.88279914855957
			],
			"min":[
				-1.1223074197769165,
				-0.6489483118057251,
				-3.9767024517059326
			],
			"type":"VEC3"
		},
		{
			"bufferView":1,
			"componentType":5126,
			"count":1415,
			"type":"VEC3"
		},
		{
			"bufferView":2,
			"componentType":5126,
			"count":1415,
			"type":"VEC2"
		},
		{
			"bufferView":3,
			"componentType":5123,
			"count":7320,
			"type":"SCALAR"
		},
		{
			"bufferView":4,
			"componentType":5126,
			"count":77,
			"max":[
				0.24702945351600647,
				5.509032249450684,
				4.883404731750488
			],
			"min":[
				-0.272367388010025,
				0.3829098045825958,
				-3.9767024517059326
			],
			"type":"VEC3"
		},
		{
			"bufferView":5,
			"componentType":5126,
			"count":77,
			"type":"VEC3"
		},
		{
			"bufferView":6,
			"componentType":5126,
			"count":77,
			"type":"VEC2"
		},
		{
			"bufferView":7,
			"componentType":5123,
			"count":312,
			"type":"SCALAR"
		}
	],
	"bufferViews":[
		{
			"buffer":0,
			"byteLength":16980,
			"byteOffset":0,
			"target":34962
		},
		{
			"buffer":0,
			"byteLength":16980,
			"byteOffset":16980,
			"target":34962
		},
		{
			"buffer":0,
			"byteLength":11320,
			"byteOffset":33960,
			"target":34962
		},
		{
			"buffer":0,
			"byteLength":14640,
			"byteOffset":45280,
			"target":34963
		},
		{
			"buffer":0,
			"byteLength":924,
			"byteOffset":59920,
			"target":34962
		},
		{
			"buffer":0,
			"byteLength":924,
			"byteOffset":60844,
			"target":34962
		},
		{
			"buffer":0,
			"byteLength":616,
			"byteOffset":61768,
			"target":34962
		},
		{
			"buffer":0,
			"byteLength":624,
			"byteOffset":62384,
			"target":34963
		}
	],
	"buffers":[
		{
			"byteLength":63008,
			"uri":"data:application/octet-stream;base64,"
		}
	]
}
